<?xml version="1.0" encoding="UTF-8" standalone="no"?>
<!-- Created with Inkscape (http://www.inkscape.org/) -->

<svg
   xmlns:dc="http://purl.org/dc/elements/1.1/"
   xmlns:cc="http://creativecommons.org/ns#"
   xmlns:rdf="http://www.w3.org/1999/02/22-rdf-syntax-ns#"
   xmlns:svg="http://www.w3.org/2000/svg"
   xmlns="http://www.w3.org/2000/svg"
   xmlns:sodipodi="http://sodipodi.sourceforge.net/DTD/sodipodi-0.dtd"
   xmlns:inkscape="http://www.inkscape.org/namespaces/inkscape"
   width="43.944023mm"
   height="50.805603mm"
   viewBox="0 0 43.944023 50.805603"
   version="1.1"
   id="svg959"
   sodipodi:docname="hermes_Rwings.svg"
   inkscape:version="0.92.4 (5da689c313, 2019-01-14)">
  <defs
     id="defs953">
    <linearGradient
       gradientTransform="matrix(0.05659648,0,0,0.05775171,81.963348,126.6334)"
       id="gradientFill-2"
       x1="301.02603"
       x2="703.06751"
       y1="151.40061"
       y2="553.44209"
       gradientUnits="userSpaceOnUse"
       spreadMethod="pad">
      <stop
         offset="0"
         stop-color="rgb(39,109,195)"
         stop-opacity="1"
         id="stop7" />
      <stop
         offset="1"
         stop-color="rgb(22,92,170)"
         stop-opacity="1"
         id="stop9" />
    </linearGradient>
  </defs>
  <sodipodi:namedview
     id="base"
     pagecolor="#ffffff"
     bordercolor="#666666"
     borderopacity="1.0"
     inkscape:pageopacity="0.0"
     inkscape:pageshadow="2"
     inkscape:zoom="2.8284271"
     inkscape:cx="47.980841"
     inkscape:cy="161.58139"
     inkscape:document-units="mm"
     inkscape:current-layer="layer1"
     showgrid="false"
     inkscape:window-width="1920"
     inkscape:window-height="986"
     inkscape:window-x="-11"
     inkscape:window-y="-11"
     inkscape:window-maximized="1" />
  <metadata
     id="metadata956">
    <rdf:RDF>
      <cc:Work
         rdf:about="">
        <dc:format>image/svg+xml</dc:format>
        <dc:type
           rdf:resource="http://purl.org/dc/dcmitype/StillImage" />
        <dc:title></dc:title>
      </cc:Work>
    </rdf:RDF>
  </metadata>
  <g
     inkscape:label="Layer 1"
     inkscape:groupmode="layer"
     id="layer1"
     transform="translate(-83.861293,-121.91862)">
    <path
       inkscape:connector-curvature="0"
       style="fill:#019add;fill-opacity:1;stroke:#019add;stroke-width:0.91879308;stroke-opacity:1"
       d="m 84.34343,147.78445 -0.0171,9.59631 v 2.38022 l 21.50411,12.43386 0.58498,-0.33176 20.9305,-12.1021 v -11.97653 z"
       id="path4662" />
    <path
       inkscape:connector-curvature="0"
       id="path4662-0"
       style="fill:#003b73;fill-opacity:1;stroke:#003b73;stroke-width:0.91879308;stroke-opacity:1"
       d="m 105.83618,122.44801 -0.58498,0.33176 -20.93051,12.1021 v 11.97653 h 43.00255 l 0.017,-9.59631 v -2.38022 z m -13.17749,16.56798 c 0.0193,-0.003 0.043,-4e-4 0.0692,0.0119 0.0238,0.0111 0.0452,0.0268 0.0682,0.0393 0.002,10e-4 0.005,2e-5 0.006,0.002 0.0113,0.0155 0.0225,0.0315 0.031,0.0486 -0.003,-0.005 -0.007,-0.01 -0.004,-0.009 0.007,0.003 0.0144,0.007 0.0207,0.0119 0.002,0.002 0.0195,0.0266 0.0305,0.0238 0.006,0.004 0.0114,0.008 0.0171,0.0114 0.001,5.3e-4 0.002,6.3e-4 0.003,0.001 4.5e-4,0 5.6e-4,4.8e-4 0.001,0.001 0.01,0.004 0.0251,0.0131 0.0284,0.0165 0.0144,0.004 0.0289,0.009 0.0429,0.0139 0.0512,0.0195 0.005,0.007 0.0274,0.0129 0.0321,0.0162 0.0476,0.0221 0.076,0.0357 -0.002,-0.002 -0.006,-0.006 -0.004,-0.005 0.0277,0.0162 0.0258,0.0153 0.0444,0.0382 2.4e-4,2.6e-4 2.9e-4,7.7e-4 5.3e-4,10e-4 0.0153,0.003 0.0313,0.005 0.045,0.0129 0.0111,0.006 0.0166,0.0196 0.0253,0.0289 0.0111,0.0119 0.0134,0.01 0.0243,0.0139 0.0277,0.008 0.0412,0.0128 0.0434,0.0191 0.0288,-0.003 0.0681,1e-5 0.0847,0.0284 0.003,0.005 0.004,0.0106 0.006,0.016 0.009,0.007 0.019,0.0167 0.0253,0.0258 0.003,0.004 0.006,0.007 0.008,0.0119 -0.002,-0.003 -0.002,-0.003 -0.003,-0.006 0.001,0.001 0.005,0.005 0.006,0.006 0.0236,-0.002 0.0616,-0.005 0.0682,-0.002 0.0182,0.01 0.0345,0.0228 0.0517,0.0341 0.013,0.015 -0.026,-0.0147 -0.0181,-0.016 0.005,-9.5e-4 0.008,0.005 0.0124,0.009 0.0115,0.005 0.0227,0.0111 0.0341,0.0165 7.6e-4,3.4e-4 0.003,10e-4 0.002,10e-4 -0.0167,-0.0103 0.008,0.009 0.0191,0.0181 0.0258,-0.009 0.0554,0.003 0.0744,0.0238 0.004,-0.003 0.0297,-0.001 0.0419,0.006 0.0152,0.009 0.0227,0.0269 0.0341,0.0403 0.003,0.007 0.0167,0.0201 0.009,0.0196 0.0116,0.0179 0.0232,0.0357 0.0336,0.0543 1.8e-4,3.4e-4 3.1e-4,6.9e-4 5.2e-4,0.001 0.0108,0.0158 0.018,0.043 0.0186,0.0444 8.2e-4,0.002 -6.4e-4,-0.009 5.3e-4,-0.007 0.0114,0.0192 -0.001,0.0139 0.007,0.0171 0.0148,0.0263 0.0211,0.0461 0.0233,0.0682 0.008,0.006 0.0154,0.0126 0.0212,0.0207 0.0133,0.0183 0.0206,0.0463 0.0264,0.0687 10e-4,0.001 0.002,0.002 0.003,0.003 0.0218,0.032 0.0157,0.0236 0.0238,0.0656 0.004,0.008 0.004,0.018 0.007,0.0264 6.4e-4,0.002 7e-5,-0.008 5.3e-4,-0.009 0.002,-5e-4 0.005,0 0.007,0.002 0.008,0.005 0.0155,0.0114 0.0232,0.017 0.0229,0.0161 0.0286,0.0441 0.0439,0.0656 0.002,0.003 -0.007,-0.009 -0.004,-0.009 0.004,-7e-5 0.007,0.005 0.009,0.009 0.008,0.0142 0.0127,0.0296 0.0191,0.0444 5e-5,-2.2e-4 10e-4,-0.006 0.002,-0.006 0.003,0.001 0.005,0.004 0.007,0.006 0.003,0.002 0.007,0.002 0.01,0.005 0.0242,0.0184 0.0284,0.0248 0.0475,0.046 0.0194,0.0242 0.0114,0.0115 0.0269,0.0465 0.001,0.002 0.001,0.005 0.003,0.007 9.8e-4,0.001 -3.9e-4,-0.003 -5.3e-4,-0.004 0.002,0.003 0.003,0.006 0.005,0.009 0.0495,0.028 0.0755,0.0827 0.10026,0.13126 0.008,0.0142 0.0133,0.0297 0.0212,0.0439 0.0122,0.0221 0.0231,0.0349 0.0238,0.063 2.3e-4,0.01 -0.003,0.019 -0.005,0.0284 -0.004,0.005 -0.003,0.0101 -0.003,0.0124 0.0237,0.11332 -0.1224,0.11347 -0.11679,-0.002 5.5e-4,-0.0116 0.003,-0.0233 0.006,-0.0346 -0.0112,-0.019 -0.0227,-0.0372 -0.031,-0.0579 -0.0204,-0.0403 0.003,0.006 -0.0207,-0.0398 -0.0123,-0.0232 -0.0229,-0.043 -0.0481,-0.0543 -0.008,-0.008 -0.0166,-0.0161 -0.0243,-0.0248 -4.3e-4,-4.5e-4 -0.0232,-0.0345 -0.0217,-0.0413 6.9e-4,-0.003 0.008,0.0102 0.006,0.007 -0.003,-0.004 -0.006,-0.008 -0.009,-0.0119 -0.005,-0.006 -0.0167,-0.02 -0.0227,-0.0248 -0.01,-0.008 -0.021,-0.0133 -0.0305,-0.0212 -0.0164,-0.0136 -0.0272,-0.0319 -0.0346,-0.0517 -0.0145,-0.0145 -0.0272,-0.0279 -0.032,-0.0491 -0.0145,-0.0167 0.0136,0.0148 -0.0351,-0.0222 -0.031,-0.0236 -0.0405,-0.0583 -0.047,-0.0946 0.003,6.9e-4 0.01,0.006 0.008,0.004 -0.002,-0.004 -0.006,-0.006 -0.009,-0.0103 -0.0125,-0.0134 -0.0114,-0.0207 -0.0222,-0.046 -0.001,-0.0113 -8e-5,-0.004 -0.007,-0.0222 -3.9e-4,-0.002 0.0124,0.003 0.009,0 -0.004,-0.003 -0.009,-0.005 -0.0129,-0.007 -0.0131,-0.0221 -0.0262,-0.044 -0.0393,-0.0661 5.3e-4,-0.003 5.6e-4,-0.006 0.002,-0.009 4.2e-4,-0.001 0.0226,0.0392 -0.007,-0.0139 -0.001,-0.002 -0.003,-0.005 -0.004,-0.008 -5.6e-4,-10e-4 -0.01,-0.026 -0.016,-0.045 -0.004,-0.004 -0.008,-0.009 -0.0124,-0.0129 -2.4e-4,-5.3e-4 -0.0299,-0.048 -0.0279,-0.0496 0.006,-0.004 0.0189,0.0195 0.015,0.0139 -0.0153,-0.0223 -0.0377,-0.0381 -0.0243,-0.0284 l -5.3e-4,-5.3e-4 c -0.008,-0.001 -0.0152,1.4e-4 -0.0341,-0.004 -0.005,-0.005 -0.009,-0.01 -0.014,-0.015 -0.007,7.1e-4 -0.0177,0.001 -0.007,0.003 -0.0435,-0.006 -0.0393,8.2e-4 -0.0729,-0.03 -0.002,-0.002 -0.001,-0.004 -0.004,-0.007 -0.005,-0.003 -0.0129,-0.008 -0.0129,-0.008 0.003,9.5e-4 0.005,0.002 0.01,0.003 -2e-4,-5.8e-4 -10e-4,-0.002 -10e-4,-0.002 -0.01,-0.002 -0.0183,-0.006 -0.0269,-0.0114 0.002,0.002 -3.2e-4,-3.5e-4 0.003,0.002 0.004,0.004 -0.0186,-0.0112 -0.015,-0.007 0.003,0.003 0.008,0.003 0.0124,0.005 -0.011,-0.009 -0.008,-0.007 -0.0119,-0.009 -0.0186,-3.2e-4 -0.0369,-4e-4 -0.0553,0.003 -0.0583,-0.002 -0.0101,0.006 -0.0765,-0.0424 -0.009,-0.007 0.0263,0.0403 0.0227,0.0243 -0.006,-0.006 -0.0441,-0.0372 -0.0207,-0.0165 -0.007,-0.008 -0.0141,-0.0165 -0.0212,-0.0248 0.002,10e-4 0.006,0.006 0.005,0.004 -0.004,-0.005 -0.0193,-0.0139 -0.0129,-0.0145 0.0107,-9.8e-4 0.0378,0.0198 0.0295,0.0129 -0.0307,-0.0252 -0.0388,-0.0251 -0.0434,-0.0258 -0.0144,0.002 -0.0113,0.003 -0.0486,5.3e-4 -0.009,-0.008 -0.0181,-0.016 -0.0274,-0.0238 -0.007,-0.002 -0.0191,-0.004 -0.015,-0.004 -0.0274,-0.0128 -0.0513,-0.0273 -0.0708,-0.0512 -0.0118,-0.003 -0.0243,-0.004 -0.0351,-0.009 -0.01,-0.005 -0.0178,-0.013 -0.0258,-0.0207 -0.004,-0.004 -0.007,-0.008 -0.01,-0.0129 -4.8e-4,-7.2e-4 -0.001,-0.003 -5.3e-4,-0.003 0.003,1.5e-4 0.0128,0.005 0.01,0.003 -0.009,-0.005 -0.0193,-0.009 -0.0289,-0.0134 0.008,0.002 0.0302,0.004 0.0227,0.007 -0.009,0.004 -0.0379,-0.0101 -0.0465,-0.0145 -5.6e-4,-2.9e-4 0.002,-2.4e-4 0.002,-5.3e-4 -0.0251,-0.0118 -0.0117,-0.002 -0.0217,-0.01 -6.1e-4,-2.4e-4 -0.0378,-0.0141 -0.0398,-0.0186 -0.002,-0.004 0.0152,-0.003 0.0114,-0.004 -0.009,-0.002 -0.0188,0.002 -0.0279,0 -0.0272,-0.006 -0.0355,-0.0128 -0.045,-0.0232 -0.012,-0.005 -0.0241,-0.0117 -0.0279,-0.0145 -7.9e-4,-5.8e-4 0.002,-3e-5 0.003,0 -0.0295,-0.0152 -0.03,-0.0123 -0.0527,-0.0351 -0.002,-0.002 0.009,0.003 0.007,0.002 -0.0113,-0.006 -0.0245,-0.0103 -0.0346,-0.0181 -0.0103,-0.008 -0.0168,-0.0203 -0.0253,-0.0305 -3.5e-4,-0.002 -6.9e-4,-0.005 -0.001,-0.007 -0.0212,-0.0124 -0.0409,-0.0274 -0.0636,-0.0372 -0.0796,-0.0347 -0.0625,-0.0994 -0.005,-0.10904 z m 0.83715,0.43718 c 0.004,0.004 0.009,0.007 0.014,0.01 0.002,0.001 -0.002,-0.004 -0.004,-0.005 -0.003,-0.002 -0.0132,-0.007 -0.01,-0.005 z m -0.59789,-0.29714 c -0.008,-0.003 -0.0218,-0.009 -0.0165,-0.006 0.0135,0.007 0.0125,0.006 0.0186,0.008 -7.1e-4,-4.5e-4 -10e-4,-0.001 -0.002,-0.002 z m 0.0377,0.0258 c 0.003,0.004 0.003,0.003 0.0129,0.0155 -0.002,-0.004 -0.004,-0.008 -0.007,-0.0114 -0.002,-0.002 -0.004,-0.003 -0.006,-0.004 z m 0.185,0.094 c 0.002,0.003 0.004,0.006 0.006,0.008 0.002,0.002 -8.7e-4,-0.004 -0.003,-0.006 -0.001,-9.2e-4 -0.002,-0.001 -0.004,-0.002 z m 0.14366,0.0977 c 0.002,0.009 6.6e-4,0.008 0.009,0.0264 0.002,0.005 0.002,-0.011 0,-0.0155 -0.002,-0.004 -0.006,-0.007 -0.009,-0.0109 z m 0.0832,0.0227 c 0.002,0.008 0.005,0.0148 0.008,0.0222 -0.002,-0.007 -5.8e-4,-0.0143 -0.005,-0.0196 -8.2e-4,-0.001 -0.002,-0.001 -0.003,-0.003 z m 0.18345,0.1819 c -0.002,-10e-4 0.007,0.0156 0.0134,0.0165 7.1e-4,1.1e-4 0.001,4.3e-4 0.002,5.3e-4 -0.005,-0.006 -0.01,-0.0117 -0.0155,-0.017 z m 0.12816,0.12919 c 1.9e-4,4.2e-4 2.9e-4,10e-4 5.3e-4,0.002 0.001,0.002 0.007,0.006 0.006,0.005 -0.002,-0.002 -0.004,-0.004 -0.006,-0.006 z m 15.11846,5.19917 c 0.0159,0.002 0.0334,0.006 0.0522,0.0145 v 5.3e-4 c 0.0467,0.02 0.17575,0.0735 0.22117,0.10025 0.0325,0.0191 0.0614,0.0442 0.092,0.0661 0.0227,0.0164 0.0464,0.031 0.0677,0.0491 0.27609,0.23421 -0.15325,-0.10912 0.13436,0.11834 0.0705,0.0478 0.10863,0.0769 0.18397,0.1142 0.0307,0.0152 0.0632,0.0271 0.0946,0.0408 0.0323,0.014 0.0639,0.0295 0.0966,0.0424 0.0321,0.0127 0.066,0.021 0.0977,0.0346 0.0362,0.0155 0.0702,0.0351 0.10542,0.0527 0.0591,0.0325 0.12577,0.0496 0.18552,0.0806 0.0275,0.0143 0.0341,0.0201 0.0641,0.0393 0.0562,0.0309 0.1072,0.0726 0.1664,0.0982 0.0211,0.009 0.0434,0.0147 0.0651,0.0222 0.0382,0.0146 0.0741,0.033 0.11162,0.0491 0.0135,0.006 0.0282,0.0101 0.0408,0.0176 0.0369,0.0219 0.0718,0.0512 0.10541,0.078 0.032,0.0402 0.0665,0.0748 0.11318,0.0971 0.0124,0.006 0.0271,0.008 0.0393,0.0145 0.0632,0.0341 0.0657,0.0447 0.1173,0.0961 0.0121,-0.008 0.0249,0.0297 0.0429,0.0372 0,0 5.3e-4,0 5.3e-4,0 0.0197,0.007 0.0384,0.0198 0.0522,0.0357 0.011,0.0127 0.0186,0.0284 0.0279,0.0424 0.024,0.0476 0.0249,0.0947 0.0129,0.14521 -0.0377,0.15931 -0.20826,0.11618 -0.16019,-0.0403 0.003,-0.0107 0.009,-0.006 0.004,-0.0217 -5.3e-4,-0.003 -0.004,-0.006 -0.002,-0.008 0.003,-0.002 0.0142,0.005 0.0109,0.003 -0.0103,-0.005 -0.0217,-0.008 -0.0315,-0.0129 -0.0381,-0.0219 -0.0453,-0.0343 -0.077,-0.0661 -0.0167,-0.0186 -0.0367,-0.045 -0.06,-0.0574 -0.0206,-0.0109 -0.0439,-0.0161 -0.0646,-0.0269 -0.0503,-0.0261 -0.0963,-0.0626 -0.12971,-0.10852 -0.0131,-0.0105 -0.0263,-0.0209 -0.0393,-0.0315 -0.01,-0.008 -0.0178,-0.0179 -0.0284,-0.0243 -0.0125,-0.008 -0.0269,-0.0119 -0.0403,-0.0176 -0.0339,-0.0147 -0.0667,-0.0308 -0.10077,-0.045 -0.0225,-0.008 -0.0673,-0.0227 -0.0873,-0.0315 -0.0638,-0.0283 -0.1193,-0.0724 -0.17983,-0.10645 -0.0734,-0.0481 -0.15458,-0.073 -0.2341,-0.11059 -0.15954,-0.0819 -0.0104,-0.0104 -0.19534,-0.0837 -0.0325,-0.0129 -0.0641,-0.0279 -0.0961,-0.0419 -0.0367,-0.0161 -0.0742,-0.0306 -0.11007,-0.0486 -0.0847,-0.0425 -0.12655,-0.0751 -0.20567,-0.12919 l -0.0842,-0.0682 c -0.0146,-0.0151 -0.0279,-0.0319 -0.0439,-0.0455 -0.0216,-0.0183 -0.0461,-0.0327 -0.0687,-0.0496 -0.022,-0.0164 -0.0416,-0.0361 -0.0651,-0.0501 -0.044,-0.0261 -0.17406,-0.0798 -0.21704,-0.0982 -0.13165,-0.0564 -0.0966,-0.17927 0.015,-0.16588 z" />
    <g
       id="g3250"
       transform="matrix(1.0825268,-0.56016124,0.53892788,1.0414925,-83.515802,44.379669)">
      <path
         inkscape:connector-curvature="0"
         id="path3215"
         d="m 102.71294,136.67445 c -0.0662,-0.002 -0.13014,-2.9e-4 -0.19172,0.005 -0.90482,0.0726 -1.53264,0.68318 -1.44177,1.40199 0.0237,0.18776 0.006,0.27904 -0.0734,0.38654 -0.27481,0.37068 -0.3937,1.02998 -0.27079,1.49965 0.0721,0.27557 0.77944,1.0418 1.20148,1.30172 l 0.28577,0.17622 -0.0179,0.43769 -0.0475,0.15746 c -0.19768,0.36939 -1.02471,0.40126 -1.40662,0.70541 0.12588,0.0286 -0.0219,1.29328 0.11433,1.34578 0.0631,0.0243 0.85594,-0.17949 1.01841,-0.23645 0.19968,-0.0169 0.76167,-0.0946 0.9169,-0.13086 0.14814,0.051 0.31837,-0.055 0.4595,-0.0517 0.15848,-0.0164 0.30312,-0.0798 0.42255,-0.14721 l 0.18232,-0.0547 c 0.04,0.0497 -0.058,-0.0247 0,0 0,0 0.20247,-0.0294 0.48248,-0.13791 0.15812,-0.0517 0.3637,-0.18924 0.54715,-0.28579 0.35362,-0.1862 0.55516,-0.34649 0.89865,-0.7152 0.70709,-0.75901 0.96567,-1.38964 0.96687,-2.35645 8.2e-4,-0.6703 -0.12023,-0.95344 -0.64906,-1.51825 -0.9278,-0.99095 -2.40489,-1.75572 -3.39773,-1.78232 z"
         style="fill:#ff8100;fill-opacity:1;stroke:#ff8100;stroke-width:0.05697448;stroke-opacity:1"
         sodipodi:nodetypes="cccccccccccccccccccccccc" />
      <path
         sodipodi:nodetypes="ccccssccccc"
         id="path1049"
         d="m 104.45905,142.90433 c 0.26331,-0.0718 1.18617,-0.86015 1.18662,-0.909 0.19463,-0.0418 -0.51648,0.0348 -0.87759,0.0418 -0.79196,0.0155 -1.28694,-0.0523 -1.85259,-0.25415 -0.21779,-0.0777 -0.40553,-0.14128 -0.41721,-0.14128 -0.0116,0 -0.0212,0.15089 -0.0212,0.33532 l -1.86368,1.02482 -0.001,0.24774 c 0.13625,0.0663 -0.2332,0.59894 -0.0675,0.7245 0.0805,0.0548 2.90924,-0.69817 3.26114,-0.77115 z"
         style="fill:#ffa400;fill-opacity:1;stroke:#ff8100;stroke-width:0.04645237;stroke-opacity:1"
         inkscape:connector-curvature="0" />
      <path
         id="path1013"
         d="m 105.73022,141.69045 c 0.47241,-0.33171 0.73058,-0.9441 0.73058,-1.73296 0,-0.37575 -0.0259,-0.51497 -0.14163,-0.76137 -0.36535,-0.7779 -1.99462,-1.94491 -3.10008,-2.22052 -0.66037,-0.16465 -1.24565,-0.0402 -1.64014,0.34866 -0.20674,0.20381 -0.27086,0.40941 -0.22989,0.73716 0.0292,0.23355 0.0131,0.30839 -0.10617,0.49495 -0.46384,0.72521 -0.27479,1.10204 0.5051,1.00682 0.75721,-0.0925 0.72292,-0.10332 1.02204,0.32225 0.39317,0.55927 0.62367,0.79092 1.00203,1.00699 0.30977,0.17691 0.38184,0.19365 0.86344,0.20073 0.48766,0.007 0.52671,0.0165 0.54273,0.13019 0.014,0.0997 -0.0204,0.13006 -0.18469,0.16271 -0.11107,0.0222 -0.37419,0.0272 -0.5847,0.0108 -0.6899,-0.0524 -1.29229,-0.47601 -1.84754,-1.29927 -0.14378,-0.21319 -0.24941,-0.31714 -0.30169,-0.29689 -0.18571,0.072 -0.93921,0.0971 -1.10222,0.0369 -0.26587,-0.0983 -0.21742,0.0108 0.21471,0.48365 0.26385,0.28871 0.56777,0.53778 0.95413,0.78189 1.05071,0.6639 1.43712,0.78213 2.48199,0.75932 0.65226,-0.0142 0.71291,-0.0255 0.922,-0.17238 z"
         style="fill:#ffa400;fill-opacity:1;stroke:#ff8100;stroke-width:0.05697448;stroke-opacity:1"
         inkscape:connector-curvature="0" />
      <path
         inkscape:connector-curvature="0"
         id="path1733"
         d="m 104.77318,140.08766 c -0.13058,-0.12601 -0.12541,-0.33072 0.0153,-0.59264 0.31246,-0.58281 0.62343,-0.46945 0.58605,0.21367 -0.0228,0.41507 -0.0314,0.43002 -0.26273,0.45192 -0.13155,0.0135 -0.28384,-0.0203 -0.33837,-0.0729 z"
         style="fill:#003b73;fill-opacity:1;stroke:#003b73;stroke-width:0.0781896;stroke-opacity:1" />
      <path
         inkscape:connector-curvature="0"
         id="path1731"
         d="m 103.40487,139.92261 c 0,-0.0786 0.0444,-0.14303 0.0988,-0.14303 0.0544,0 0.0988,0.0644 0.0988,0.14303 0,0.0786 -0.0444,0.14305 -0.0988,0.14305 -0.0544,0 -0.0988,-0.0644 -0.0988,-0.14305 z"
         style="fill:#003b73;fill-opacity:1;stroke:#003b73;stroke-width:0.09703217;stroke-opacity:1" />
      <path
         inkscape:connector-curvature="0"
         id="path1725"
         d="m 101.74256,138.99063 c 0,-0.0786 0.0445,-0.14304 0.0988,-0.14304 0.0543,0 0.0988,0.0643 0.0988,0.14304 0,0.0786 -0.0445,0.14304 -0.0988,0.14304 -0.0543,0 -0.0988,-0.0644 -0.0988,-0.14304 z"
         style="fill:#003b73;fill-opacity:1;stroke:#003b73;stroke-width:0.09703188;stroke-opacity:1" />
      <path
         inkscape:connector-curvature="0"
         id="path1721"
         d="m 101.72901,138.25313 c 0,-0.0406 -0.0207,-0.12573 -0.0461,-0.18969 -0.0253,-0.0637 0.0538,-0.23037 0.17599,-0.3704 0.17567,-0.20136 0.2462,-0.23523 0.33759,-0.16204 0.15333,0.12276 0.14568,0.27993 -0.0274,0.5625 -0.13242,0.21622 -0.44013,0.32777 -0.44013,0.15945 z"
         style="fill:#003b73;fill-opacity:1;stroke:#003b73;stroke-width:0.08179847;stroke-opacity:1" />
    </g>
    <g
       id="g1994"
       transform="translate(-1.0589854,0.22059651)">
      <g
         transform="matrix(-0.62063506,0,0,0.66220499,156.39114,50.959563)"
         id="g2380-0-3-4">
        <path
           style="fill:#ffffff;fill-opacity:1;stroke:#ffffff;stroke-width:0.07071769;stroke-opacity:1"
           d="m 98.30697,135.21486 c -0.02641,5.8e-4 -0.05153,0.004 -0.07648,0.008 -0.34774,0.0663 -0.977167,0.44842 -0.976167,0.59273 5.55e-4,0.0773 0.195481,0.23501 0.5302,0.42891 0.179514,0.10399 0.314387,0.18937 0.410311,0.25425 0.0164,0.003 0.03218,0.0103 0.04393,0.0233 0.0037,-0.003 0.0297,-0.001 0.04186,0.006 0.01523,0.009 0.02272,0.0269 0.03411,0.0403 0.0032,0.007 0.0167,0.0201 0.0093,0.0196 0.01158,0.0178 0.02322,0.0357 0.03359,0.0543 1.88e-4,3.5e-4 3.18e-4,6.9e-4 5.3e-4,0.001 0.01082,0.0158 0.01805,0.043 0.0186,0.0444 8.2e-4,0.002 -6.35e-4,-0.009 5.29e-4,-0.007 0.01139,0.0192 -0.0014,0.014 0.0072,0.0171 0.01478,0.0263 0.02111,0.0461 0.02326,0.0682 0.0076,0.006 0.01538,0.0126 0.02119,0.0207 0.01326,0.0183 0.02057,0.0463 0.02636,0.0687 0.001,0.001 0.0023,0.002 0.0031,0.003 0.02184,0.032 0.01568,0.0236 0.02377,0.0656 0.0038,0.008 0.0035,0.018 0.0067,0.0264 6.35e-4,0.002 7.4e-5,-0.008 5.3e-4,-0.009 0.0025,-5e-4 0.005,1e-5 0.0072,0.002 0.0082,0.005 0.01548,0.0115 0.02326,0.017 0.02293,0.0161 0.02864,0.0441 0.04393,0.0656 0.0018,0.003 -0.0067,-0.009 -0.0036,-0.009 0.0042,-7e-5 0.0073,0.005 0.0093,0.009 0.0077,0.0142 0.01274,0.0296 0.01912,0.0444 4.8e-5,-2.1e-4 0.0012,-0.006 0.0016,-0.006 0.0029,0.001 0.0045,0.004 0.0072,0.006 0.0031,0.002 0.0069,0.002 0.0098,0.005 0.02415,0.0184 0.02843,0.0248 0.04754,0.046 0.01942,0.0242 0.01136,0.0115 0.02687,0.0465 0.0011,0.002 0.0013,0.005 0.0031,0.007 9.79e-4,0.001 -3.97e-4,-0.003 -5.29e-4,-0.004 0.0017,0.003 0.0034,0.006 0.0052,0.009 0.04951,0.028 0.07547,0.0827 0.100252,0.13126 0.0079,0.0142 0.01332,0.0297 0.02119,0.0439 0.0083,0.0149 0.01431,0.0273 0.0186,0.0413 3.44e-4,4e-4 6.88e-4,6.4e-4 0.001,0.001 0.348404,0.39117 0.425585,0.44356 0.629935,0.43046 0.777729,-0.0498 0.947489,-0.17542 0.533301,-0.39429 -0.12641,-0.0668 -0.166157,-0.10183 -0.08837,-0.078 1.310538,0.40034 2.623358,0.44273 3.283528,0.10593 0.33662,-0.17174 0.36355,-0.26561 0.0935,-0.32711 -1.43784,-0.32728 -2.15507,-0.59558 -3.708304,-1.38906 -0.826212,-0.42209 -1.082219,-0.53428 -1.267106,-0.5302 z"
           id="path2358-6-8-3"
           inkscape:connector-curvature="0" />
        <path
           style="fill:#ffffff;fill-opacity:1;stroke:#ffffff;stroke-width:0.07071769;stroke-opacity:1"
           d="m 103.34733,136.82566 c -0.71801,-0.14315 -1.43585,-0.37293 -2.25326,-0.72127 -0.74892,-0.31916 -2.055783,-1.04233 -2.055779,-1.13759 2e-6,-0.0566 0.44194,-0.42798 0.667518,-0.56092 0.254528,-0.15002 0.568331,-0.0989 1.208511,0.19687 1.27306,0.58815 3.96446,1.38847 5.46449,1.62492 0.59849,0.0943 0.6256,0.18304 0.11431,0.37401 -0.85875,0.32075 -2.18624,0.41527 -3.14579,0.22398 z"
           id="path2205-0-7-7"
           inkscape:connector-curvature="0" />
        <path
           style="fill:#ffffff;fill-opacity:1;stroke:#ffffff;stroke-width:0.07071769;stroke-opacity:1"
           d="m 106.41705,135.8651 c -1.2171,-0.14182 -3.04528,-0.60735 -4.7565,-1.2112 -0.48366,-0.17067 -0.88965,-0.34112 -0.9022,-0.37877 -0.0125,-0.0376 0.21503,-0.10629 0.50574,-0.15254 0.6223,-0.099 1.07339,-0.30931 1.18395,-0.55195 0.0436,-0.0957 0.12606,-0.17391 0.18329,-0.17391 0.0572,0 0.55333,0.12637 1.10245,0.28083 1.6173,0.45491 4.0592,0.95347 5.40058,1.10264 0.28992,0.0322 0.44198,0.0807 0.44198,0.14094 0,0.13108 -0.46947,0.50232 -0.88397,0.69901 -0.63196,0.29988 -1.24108,0.36546 -2.27532,0.24495 z"
           id="path2201-0-8-9"
           inkscape:connector-curvature="0" />
        <path
           style="fill:#ffffff;fill-opacity:1;stroke:#ffffff;stroke-width:0.07071769;stroke-opacity:1"
           d="m 94.495247,135.57225 c -0.04686,-0.0469 0.03601,-0.36681 0.150318,-0.5804 0.143415,-0.26798 0.298426,-0.36896 0.566339,-0.36896 0.149019,0 0.433293,-0.0852 0.649088,-0.19448 0.320863,-0.16252 0.415901,-0.25756 0.578422,-0.57842 0.181241,-0.35782 0.194544,-0.44443 0.195516,-1.27292 0.0011,-0.95828 0.04827,-1.13429 0.367293,-1.37111 0.64103,-0.47587 2.248205,0.013 4.532167,1.37866 0.6859,0.41012 0.83141,0.52592 0.81376,0.64763 -0.0259,0.17859 -0.39529,0.43924 -0.79238,0.55911 -0.3224,0.0973 -1.633066,0.11819 -2.23461,0.0356 l -0.388948,-0.0534 0.231229,0.11994 c 0.127176,0.066 0.220146,0.15366 0.206601,0.19486 -0.01354,0.0412 -0.164731,0.18205 -0.33597,0.31301 -0.30609,0.23409 -0.320014,0.23732 -0.825381,0.19152 -0.526319,-0.0477 -0.607498,-0.0185 -0.390393,0.14021 0.068,0.0497 0.107783,0.10213 0.0884,0.11645 -0.474247,0.35023 -0.88329,0.55127 -1.121625,0.55127 -0.158439,0 -0.31267,0.045 -0.363336,0.10608 -0.06981,0.0841 -0.274184,0.10607 -0.98692,0.10607 -0.494387,0 -0.917192,-0.0183 -0.939567,-0.0407 z"
           id="path2197-3-6-6"
           inkscape:connector-curvature="0" />
        <path
           style="fill:#ffffff;fill-opacity:1;stroke:#ffffff;stroke-width:0.05915059;stroke-opacity:1"
           d="m 96.662053,135.81004 c -0.02126,-0.008 -0.04226,-0.0135 -0.06366,-0.0177 -0.297634,-0.0599 -0.915041,0.0299 -0.957563,0.13948 -0.02275,0.0586 0.08558,0.2398 0.294694,0.49259 0.112147,0.1356 0.194243,0.24292 0.251378,0.32241 0.01236,0.007 0.02275,0.0176 0.02808,0.0316 0.0037,-6.8e-4 0.02402,0.009 0.03158,0.0179 0.0096,0.0113 0.01007,0.0276 0.01515,0.0413 2.98e-4,0.007 0.0073,0.0205 0.0015,0.0178 0.0039,0.0171 0.0078,0.0344 0.01053,0.0517 4.6e-5,3.2e-4 4.7e-5,6.2e-4 1.23e-4,9.2e-4 0.0039,0.0154 0.0015,0.0383 0.0015,0.0395 -8.2e-5,0.002 0.0021,-0.007 0.0026,-0.005 0.0034,0.0181 -0.0053,0.0101 6.39e-4,0.0152 0.0039,0.0246 0.003,0.0415 -0.0019,0.059 0.0042,0.007 0.0085,0.0144 0.0107,0.0224 0.0051,0.018 0.0025,0.0416 4.47e-4,0.0603 4.96e-4,0.001 0.0011,0.003 0.0018,0.003 0.0079,0.0311 0.0054,0.0228 -7.04e-4,0.0572 4.87e-4,0.008 -0.0026,0.0148 -0.0025,0.0221 -2.3e-4,0.002 0.0026,-0.006 0.003,-0.006 0.0021,4e-4 0.004,0.002 0.005,0.004 0.005,0.006 0.009,0.0133 0.01349,0.0202 0.01348,0.0194 0.0096,0.0424 0.0154,0.0635 6.57e-4,0.002 -0.0028,-0.009 -3.01e-4,-0.008 0.0034,0.001 0.0044,0.006 0.0049,0.009 0.0019,0.0132 0.0013,0.0264 0.0019,0.0397 1.01e-4,-1.4e-4 0.0028,-0.004 0.0031,-0.004 0.002,0.002 0.0025,0.004 0.0039,0.007 0.0018,0.003 0.0047,0.004 0.0063,0.007 0.01376,0.0216 0.01526,0.0278 0.02415,0.0499 0.0082,0.0245 0.0058,0.012 0.0075,0.0437 1.41e-4,0.002 -4.52e-4,0.004 2.98e-4,0.007 4.83e-4,0.001 4.2e-4,-0.002 6.83e-4,-0.003 6.57e-4,0.002 8.53e-4,0.006 0.0016,0.008 0.03114,0.0369 0.03546,0.0865 0.04066,0.13111 0.002,0.0133 0.0017,0.0267 0.0037,0.04 0.0021,0.0139 0.0032,0.0252 0.0025,0.0371 1.52e-4,4.2e-4 3.57e-4,7e-4 4.96e-4,0.001 0.160833,0.40644 0.206748,0.47054 0.373885,0.52536 0.636111,0.2086 0.809387,0.16732 0.544292,-0.12954 -0.08091,-0.0906 -0.102143,-0.12969 -0.04717,-0.087 0.926498,0.71814 1.962269,1.16605 2.590614,1.12025 0.320396,-0.0234 0.370086,-0.0859 0.172836,-0.218 -1.050102,-0.70315 -1.542387,-1.13341 -2.544699,-2.226 -0.533158,-0.58119 -0.703942,-0.7472 -0.852832,-0.80267 z"
           id="path2358-2-3-9-6"
           inkscape:connector-curvature="0" />
      </g>
      <path
         id="path16"
         d="m 110.74383,148.20648 c 0,0 1.15021,0.34709 1.81847,0.68521 0.23186,0.11739 0.63304,0.35148 0.9224,0.65887 0.28347,0.30107 0.42168,0.60615 0.42168,0.60615 l 4.53299,7.64283 -7.32658,0.004 -3.42609,-6.43379 c 0,0 -0.70154,-1.2054 -1.13324,-1.55492 -0.3601,-0.29153 -0.51364,-0.3953 -0.8697,-0.3953 -0.24784,0 -1.74079,0 -1.74079,0 l 8.2e-4,8.37936 -6.483205,0.004 v -21.40478 h 13.019135 c 0,0 5.92978,0.10695 5.92978,5.74857 0,5.64162 -5.66623,6.06156 -5.66623,6.06156 z m -2.81994,-7.16719 -3.92488,-0.004 -0.002,3.63957 3.92684,-8.1e-4 c 0,0 1.81846,-0.006 1.81846,-1.85141 0,-1.88286 -1.81846,-1.78435 -1.81846,-1.78435 z"
         style="fill:#ffffff;fill-opacity:1;fill-rule:evenodd;stroke-width:0.05270914"
         inkscape:connector-curvature="0" />
      <g
         transform="matrix(0.62063505,0,0,0.66220498,57.064421,50.959341)"
         id="g2380-0-3">
        <path
           style="fill:#ffffff;fill-opacity:1;stroke:#ffffff;stroke-width:0.07071769;stroke-opacity:1"
           d="m 98.30697,135.21486 c -0.02641,5.8e-4 -0.05153,0.004 -0.07648,0.008 -0.34774,0.0663 -0.977167,0.44842 -0.976167,0.59273 5.55e-4,0.0773 0.195481,0.23501 0.5302,0.42891 0.179514,0.10399 0.314387,0.18937 0.410311,0.25425 0.0164,0.003 0.03218,0.0103 0.04393,0.0233 0.0037,-0.003 0.0297,-0.001 0.04186,0.006 0.01523,0.009 0.02272,0.0269 0.03411,0.0403 0.0032,0.007 0.0167,0.0201 0.0093,0.0196 0.01158,0.0178 0.02322,0.0357 0.03359,0.0543 1.88e-4,3.5e-4 3.18e-4,6.9e-4 5.3e-4,0.001 0.01082,0.0158 0.01805,0.043 0.0186,0.0444 8.2e-4,0.002 -6.35e-4,-0.009 5.29e-4,-0.007 0.01139,0.0192 -0.0014,0.014 0.0072,0.0171 0.01478,0.0263 0.02111,0.0461 0.02326,0.0682 0.0076,0.006 0.01538,0.0126 0.02119,0.0207 0.01326,0.0183 0.02057,0.0463 0.02636,0.0687 0.001,0.001 0.0023,0.002 0.0031,0.003 0.02184,0.032 0.01568,0.0236 0.02377,0.0656 0.0038,0.008 0.0035,0.018 0.0067,0.0264 6.35e-4,0.002 7.4e-5,-0.008 5.3e-4,-0.009 0.0025,-5e-4 0.005,1e-5 0.0072,0.002 0.0082,0.005 0.01548,0.0115 0.02326,0.017 0.02293,0.0161 0.02864,0.0441 0.04393,0.0656 0.0018,0.003 -0.0067,-0.009 -0.0036,-0.009 0.0042,-7e-5 0.0073,0.005 0.0093,0.009 0.0077,0.0142 0.01274,0.0296 0.01912,0.0444 4.8e-5,-2.1e-4 0.0012,-0.006 0.0016,-0.006 0.0029,0.001 0.0045,0.004 0.0072,0.006 0.0031,0.002 0.0069,0.002 0.0098,0.005 0.02415,0.0184 0.02843,0.0248 0.04754,0.046 0.01942,0.0242 0.01136,0.0115 0.02687,0.0465 0.0011,0.002 0.0013,0.005 0.0031,0.007 9.79e-4,0.001 -3.97e-4,-0.003 -5.29e-4,-0.004 0.0017,0.003 0.0034,0.006 0.0052,0.009 0.04951,0.028 0.07547,0.0827 0.100252,0.13126 0.0079,0.0142 0.01332,0.0297 0.02119,0.0439 0.0083,0.0149 0.01431,0.0273 0.0186,0.0413 3.44e-4,4e-4 6.88e-4,6.4e-4 0.001,0.001 0.348404,0.39117 0.425585,0.44356 0.629935,0.43046 0.777729,-0.0498 0.947489,-0.17542 0.533301,-0.39429 -0.12641,-0.0668 -0.166157,-0.10183 -0.08837,-0.078 1.310538,0.40034 2.623358,0.44273 3.283528,0.10593 0.33662,-0.17174 0.36355,-0.26561 0.0935,-0.32711 -1.43784,-0.32728 -2.15507,-0.59558 -3.708304,-1.38906 -0.826212,-0.42209 -1.082219,-0.53428 -1.267106,-0.5302 z"
           id="path2358-6-8"
           inkscape:connector-curvature="0" />
        <path
           style="fill:#ffffff;fill-opacity:1;stroke:#ffffff;stroke-width:0.07071769;stroke-opacity:1"
           d="m 103.34733,136.82566 c -0.71801,-0.14315 -1.43585,-0.37293 -2.25326,-0.72127 -0.74892,-0.31916 -2.055783,-1.04233 -2.055779,-1.13759 2e-6,-0.0566 0.44194,-0.42798 0.667518,-0.56092 0.254528,-0.15002 0.568331,-0.0989 1.208511,0.19687 1.27306,0.58815 3.96446,1.38847 5.46449,1.62492 0.59849,0.0943 0.6256,0.18304 0.11431,0.37401 -0.85875,0.32075 -2.18624,0.41527 -3.14579,0.22398 z"
           id="path2205-0-7"
           inkscape:connector-curvature="0" />
        <path
           style="fill:#ffffff;fill-opacity:1;stroke:#ffffff;stroke-width:0.07071769;stroke-opacity:1"
           d="m 106.41705,135.8651 c -1.2171,-0.14182 -3.04528,-0.60735 -4.7565,-1.2112 -0.48366,-0.17067 -0.88965,-0.34112 -0.9022,-0.37877 -0.0125,-0.0376 0.21503,-0.10629 0.50574,-0.15254 0.6223,-0.099 1.07339,-0.30931 1.18395,-0.55195 0.0436,-0.0957 0.12606,-0.17391 0.18329,-0.17391 0.0572,0 0.55333,0.12637 1.10245,0.28083 1.6173,0.45491 4.0592,0.95347 5.40058,1.10264 0.28992,0.0322 0.44198,0.0807 0.44198,0.14094 0,0.13108 -0.46947,0.50232 -0.88397,0.69901 -0.63196,0.29988 -1.24108,0.36546 -2.27532,0.24495 z"
           id="path2201-0-8"
           inkscape:connector-curvature="0" />
        <path
           style="fill:#ffffff;fill-opacity:1;stroke:#ffffff;stroke-width:0.07071769;stroke-opacity:1"
           d="m 94.495247,135.57225 c -0.04686,-0.0469 0.03601,-0.36681 0.150318,-0.5804 0.143415,-0.26798 0.298426,-0.36896 0.566339,-0.36896 0.149019,0 0.433293,-0.0852 0.649088,-0.19448 0.320863,-0.16252 0.415901,-0.25756 0.578422,-0.57842 0.181241,-0.35782 0.194544,-0.44443 0.195516,-1.27292 0.0011,-0.95828 0.04827,-1.13429 0.367293,-1.37111 0.64103,-0.47587 2.248205,0.013 4.532167,1.37866 0.6859,0.41012 0.83141,0.52592 0.81376,0.64763 -0.0259,0.17859 -0.39529,0.43924 -0.79238,0.55911 -0.3224,0.0973 -1.633066,0.11819 -2.23461,0.0356 l -0.388948,-0.0534 0.231229,0.11994 c 0.127176,0.066 0.220146,0.15366 0.206601,0.19486 -0.01354,0.0412 -0.164731,0.18205 -0.33597,0.31301 -0.30609,0.23409 -0.320014,0.23732 -0.825381,0.19152 -0.526319,-0.0477 -0.607498,-0.0185 -0.390393,0.14021 0.068,0.0497 0.107783,0.10213 0.0884,0.11645 -0.474247,0.35023 -0.88329,0.55127 -1.121625,0.55127 -0.158439,0 -0.31267,0.045 -0.363336,0.10608 -0.06981,0.0841 -0.274184,0.10607 -0.98692,0.10607 -0.494387,0 -0.917192,-0.0183 -0.939567,-0.0407 z"
           id="path2197-3-6"
           inkscape:connector-curvature="0" />
        <path
           style="fill:#ffffff;fill-opacity:1;stroke:#ffffff;stroke-width:0.05915059;stroke-opacity:1"
           d="m 96.662053,135.81004 c -0.02126,-0.008 -0.04226,-0.0135 -0.06366,-0.0177 -0.297634,-0.0599 -0.915041,0.0299 -0.957563,0.13948 -0.02275,0.0586 0.08558,0.2398 0.294694,0.49259 0.112147,0.1356 0.194243,0.24292 0.251378,0.32241 0.01236,0.007 0.02275,0.0176 0.02808,0.0316 0.0037,-6.8e-4 0.02402,0.009 0.03158,0.0179 0.0096,0.0113 0.01007,0.0276 0.01515,0.0413 2.98e-4,0.007 0.0073,0.0205 0.0015,0.0178 0.0039,0.0171 0.0078,0.0344 0.01053,0.0517 4.6e-5,3.2e-4 4.7e-5,6.2e-4 1.23e-4,9.2e-4 0.0039,0.0154 0.0015,0.0383 0.0015,0.0395 -8.2e-5,0.002 0.0021,-0.007 0.0026,-0.005 0.0034,0.0181 -0.0053,0.0101 6.39e-4,0.0152 0.0039,0.0246 0.003,0.0415 -0.0019,0.059 0.0042,0.007 0.0085,0.0144 0.0107,0.0224 0.0051,0.018 0.0025,0.0416 4.47e-4,0.0603 4.96e-4,0.001 0.0011,0.003 0.0018,0.003 0.0079,0.0311 0.0054,0.0228 -7.04e-4,0.0572 4.87e-4,0.008 -0.0026,0.0148 -0.0025,0.0221 -2.3e-4,0.002 0.0026,-0.006 0.003,-0.006 0.0021,4e-4 0.004,0.002 0.005,0.004 0.005,0.006 0.009,0.0133 0.01349,0.0202 0.01348,0.0194 0.0096,0.0424 0.0154,0.0635 6.57e-4,0.002 -0.0028,-0.009 -3.01e-4,-0.008 0.0034,0.001 0.0044,0.006 0.0049,0.009 0.0019,0.0132 0.0013,0.0264 0.0019,0.0397 1.01e-4,-1.4e-4 0.0028,-0.004 0.0031,-0.004 0.002,0.002 0.0025,0.004 0.0039,0.007 0.0018,0.003 0.0047,0.004 0.0063,0.007 0.01376,0.0216 0.01526,0.0278 0.02415,0.0499 0.0082,0.0245 0.0058,0.012 0.0075,0.0437 1.41e-4,0.002 -4.52e-4,0.004 2.98e-4,0.007 4.83e-4,0.001 4.2e-4,-0.002 6.83e-4,-0.003 6.57e-4,0.002 8.53e-4,0.006 0.0016,0.008 0.03114,0.0369 0.03546,0.0865 0.04066,0.13111 0.002,0.0133 0.0017,0.0267 0.0037,0.04 0.0021,0.0139 0.0032,0.0252 0.0025,0.0371 1.52e-4,4.2e-4 3.57e-4,7e-4 4.96e-4,0.001 0.160833,0.40644 0.206748,0.47054 0.373885,0.52536 0.636111,0.2086 0.809387,0.16732 0.544292,-0.12954 -0.08091,-0.0906 -0.102143,-0.12969 -0.04717,-0.087 0.926498,0.71814 1.962269,1.16605 2.590614,1.12025 0.320396,-0.0234 0.370086,-0.0859 0.172836,-0.218 -1.050102,-0.70315 -1.542387,-1.13341 -2.544699,-2.226 -0.533158,-0.58119 -0.703942,-0.7472 -0.852832,-0.80267 z"
           id="path2358-2-3-9"
           inkscape:connector-curvature="0" />
      </g>
    </g>
    <path
       inkscape:connector-curvature="0"
       style="fill:#ff8100;fill-opacity:1;stroke:#ff8100;stroke-width:0.06740376;stroke-opacity:1"
       d="m 104.03967,159.50756 c 0.28442,-0.19062 0.39672,-0.39443 0.44859,-0.81423 0.0974,-0.78791 -0.29183,-1.49597 -1.05003,-1.91022 -0.51611,-0.28199 -0.55402,-0.25177 -0.5555,0.4427 -9.1e-4,0.41676 -0.015,0.46866 -0.12763,0.46866 -0.35391,0 -0.83486,-0.38315 -1.0458,-0.83315 -0.0627,-0.13373 -0.19399,-0.50859 -0.29185,-0.83315 -0.21823,-0.72372 -0.53841,-1.21244 -0.91228,-1.39257 -0.36513,-0.17587 -0.541,-0.16838 -1.08693,0.0464 -1.076092,0.42323 -1.529792,1.28664 -1.207782,2.29848 0.11687,0.36721 0.559277,1.1031 0.901482,1.4995 0.2291,0.26538 0.517271,0.3445 0.583891,0.1603 0.0491,-0.13565 -0.0435,-0.5011 -0.239411,-0.94573 -0.44479,-1.00929 -0.44504,-1.72102 -6.7e-4,-1.91803 0.161341,-0.0715 0.255422,-0.0807 0.312332,-0.0306 0.148388,0.13069 0.413588,0.72796 0.495308,1.11554 0.22722,1.07779 0.89481,1.99669 1.79265,2.4675 0.45124,0.23661 0.55899,0.26412 1.13652,0.29014 0.55606,0.0251 0.66485,0.0106 0.8471,-0.11132 z"
       id="path1203" />
    <path
       inkscape:connector-curvature="0"
       style="fill:#ff8100;fill-opacity:1;stroke:#ff8100;stroke-width:0.06740376;stroke-opacity:1"
       d="m 103.55382,159.45772 c 0.0218,-0.023 0.0782,-0.0255 0.12542,-0.005 0.0522,0.0222 0.0367,0.0387 -0.0396,0.0419 -0.069,0.004 -0.10763,-0.0128 -0.0858,-0.0364 z"
       id="path1201" />
    <path
       inkscape:connector-curvature="0"
       style="fill:#ff8100;fill-opacity:1;stroke:#ff8100;stroke-width:0.06740376;stroke-opacity:1"
       d="m 102.99624,159.45292 c 0.045,-0.0193 0.11861,-0.0193 0.16359,0 0.045,0.0192 0.008,0.035 -0.0818,0.035 -0.09,0 -0.12677,-0.0159 -0.0818,-0.035 z"
       id="path1199" />
    <path
       inkscape:connector-curvature="0"
       style="fill:#ff8100;fill-opacity:1;stroke:#ff8100;stroke-width:0.06740376;stroke-opacity:1"
       d="m 104.10561,159.19328 c 0.0646,-0.0917 0.12966,-0.15434 0.14444,-0.13932 0.0269,0.0275 -0.18819,0.30606 -0.23639,0.30606 -0.014,0 0.0273,-0.0751 0.0919,-0.16677 z"
       id="path1197" />
    <path
       inkscape:connector-curvature="0"
       style="fill:#ffa400;fill-opacity:1;stroke:#ff8100;stroke-width:0.06740376;stroke-opacity:1"
       d="m 102.61548,159.1805 c -0.45772,-0.14203 -0.88878,-0.43471 -1.25964,-0.85538 -0.35698,-0.4049 -0.58608,-0.86756 -0.76072,-1.53619 -0.16331,-0.62528 -0.35089,-1.04127 -0.57839,-1.28267 -0.1488,-0.15786 -0.216,-0.18118 -0.4331,-0.15034 -0.30631,0.0436 -0.55913,0.22738 -0.69365,0.50428 -0.151655,0.31215 -0.110565,1.01532 0.0929,1.59063 l 0.17192,0.48601 -0.16428,-0.20829 c -0.541792,-0.68693 -0.691139,-1.58611 -0.343722,-2.06937 0.211152,-0.29376 0.589832,-0.54332 1.078024,-0.71049 0.424788,-0.1454 0.636078,-0.0734 0.959358,0.32736 0.22377,0.27737 0.34224,0.55967 0.52315,1.2466 0.14532,0.55182 0.47058,1.02301 0.89406,1.29517 0.30532,0.19621 0.40527,0.22533 0.71481,0.20829 l 0.35985,-0.0197 -0.0224,-0.5093 -0.0224,-0.50928 0.15337,0.0866 c 0.66854,0.37771 1.00713,1.0736 0.84095,1.72841 -0.047,0.18537 -0.12962,0.31183 -0.24817,0.38011 -0.23532,0.1355 -0.82096,0.13437 -1.26188,-9.2e-4 z"
       id="path1195" />
    <path
       inkscape:connector-curvature="0"
       style="fill:#ff8100;fill-opacity:1;stroke:#ff8100;stroke-width:0.06740376;stroke-opacity:1"
       d="m 101.76925,158.97347 c 0,-0.0191 0.0589,-9.2e-4 0.13087,0.0396 0.072,0.0409 0.13088,0.0899 0.13088,0.10896 0,0.0192 -0.0589,9.2e-4 -0.13088,-0.0397 -0.072,-0.0409 -0.13087,-0.0899 -0.13087,-0.10895 z"
       id="path1193" />
    <path
       inkscape:connector-curvature="0"
       style="fill:#ff8100;fill-opacity:1;stroke:#ff8100;stroke-width:0.06740376;stroke-opacity:1"
       d="m 101.11938,158.36059 c -0.0925,-0.1105 -0.19455,-0.25122 -0.22685,-0.31243 -0.0323,-0.0611 -0.0457,-0.0957 -0.0298,-0.0765 0.0159,0.0192 0.21869,0.25343 0.45065,0.52073 0.23195,0.2673 0.32103,0.39228 0.19794,0.27772 -0.12309,-0.11452 -0.29945,-0.29883 -0.39192,-0.40946 z"
       id="path1191" />
    <path
       inkscape:connector-curvature="0"
       style="fill:#ff8100;fill-opacity:1;stroke:#ff8100;stroke-width:0.06740376;stroke-opacity:1"
       d="m 99.21055,158.33615 c -0.12621,-0.14316 -0.26935,-0.32283 -0.3181,-0.39922 -0.0488,-0.0764 0.0361,0.01 0.18858,0.19094 0.30125,0.35842 0.37249,0.3939 0.41821,0.20828 0.0184,-0.0748 0.0328,-0.048 0.0375,0.0696 0.0101,0.25431 -0.0526,0.24095 -0.3262,-0.0696 z"
       id="path1189" />
    <path
       inkscape:connector-curvature="0"
       style="fill:#ff8100;fill-opacity:1;stroke:#ff8100;stroke-width:0.06740376;stroke-opacity:1"
       d="m 99.22268,157.65921 c 0,-0.0382 0.0564,0.04 0.12539,0.17357 0.069,0.13373 0.12539,0.27425 0.12539,0.31243 0,0.0382 -0.0564,-0.04 -0.12539,-0.17357 -0.069,-0.13372 -0.12539,-0.27424 -0.12539,-0.31243 z"
       id="path1187" />
    <path
       inkscape:connector-curvature="0"
       style="fill:#ff8100;fill-opacity:1;stroke:#ff8100;stroke-width:0.06740376;stroke-opacity:1"
       d="m 103.84008,157.28351 c -0.0772,-0.092 -0.1016,-0.14363 -0.0542,-0.11452 0.11388,0.0698 0.47017,0.59432 0.46986,0.69163 -1.4e-4,0.042 -0.0621,-0.0329 -0.13774,-0.16665 -0.0756,-0.13356 -0.20066,-0.31833 -0.27787,-0.41041 z"
       id="path1185" />
    <path
       inkscape:connector-curvature="0"
       style="fill:#ff8100;fill-opacity:1;stroke:#ff8100;stroke-width:0.06740376;stroke-opacity:1"
       d="m 102.57227,157.86027 c 0.0218,-0.0229 0.0782,-0.0255 0.12544,-0.005 0.0522,0.0222 0.0367,0.0387 -0.0396,0.0419 -0.069,0.004 -0.10765,-0.0128 -0.0858,-0.0364 z"
       id="path1183" />
    <path
       inkscape:connector-curvature="0"
       style="fill:#ff8100;fill-opacity:1;stroke:#ff8100;stroke-width:0.06740376;stroke-opacity:1"
       d="m 100.68639,157.68749 c -0.0575,-0.11806 -0.093,-0.22708 -0.0788,-0.24215 0.0142,-0.0143 0.0748,0.0816 0.13463,0.21474 0.13458,0.29943 0.0879,0.32233 -0.0558,0.0273 z"
       id="path1181" />
    <path
       inkscape:connector-curvature="0"
       style="fill:#ff8100;fill-opacity:1;stroke:#ff8100;stroke-width:0.06740376;stroke-opacity:1"
       d="m 98.626305,157.5512 c -0.0994,-0.19713 -0.0316,-0.16497 0.0994,0.0471 0.0619,0.1002 0.0801,0.16092 0.0406,0.135 -0.0395,-0.0259 -0.10251,-0.10788 -0.13997,-0.18212 z"
       id="path1179" />
    <path
       inkscape:connector-curvature="0"
       style="fill:#ff8100;fill-opacity:1;stroke:#ff8100;stroke-width:0.06740376;stroke-opacity:1"
       d="m 101.72705,157.29582 c -0.15751,-0.22605 -0.3517,-0.61287 -0.34736,-0.69196 0.002,-0.0305 0.075,0.0911 0.16291,0.27022 0.088,0.17916 0.27061,0.44153 0.40595,0.58302 0.16557,0.17312 0.19149,0.22024 0.0792,0.14397 -0.0917,-0.0623 -0.2271,-0.19969 -0.3007,-0.30531 z"
       id="path1177" />
    <path
       inkscape:connector-curvature="0"
       style="fill:#ff8100;fill-opacity:1;stroke:#ff8100;stroke-width:0.06740376;stroke-opacity:1"
       d="m 100.4158,156.77833 c 0.0209,-0.0555 0.0364,-0.0389 0.0396,0.042 0.003,0.0731 -0.0126,0.11427 -0.0344,0.0911 -0.0218,-0.023 -0.0241,-0.083 -0.005,-0.1331 z"
       id="path1175" />
    <path
       inkscape:connector-curvature="0"
       style="fill:#ff8100;fill-opacity:1;stroke:#ff8100;stroke-width:0.06740376;stroke-opacity:1"
       d="m 98.97618,156.77833 c 0.0209,-0.0555 0.0364,-0.0389 0.0395,0.042 0.003,0.0731 -0.0126,0.11427 -0.0344,0.0911 -0.0218,-0.023 -0.0241,-0.083 -0.006,-0.1331 z"
       id="path1173" />
    <path
       inkscape:connector-curvature="0"
       style="fill:#ff8100;fill-opacity:1;stroke:#ff8100;stroke-width:0.06740376;stroke-opacity:1"
       d="m 103.03035,156.81891 c 0.0218,-0.023 0.0782,-0.0255 0.12542,-0.005 0.0522,0.0222 0.0367,0.0387 -0.0396,0.0419 -0.069,0.004 -0.10763,-0.0128 -0.0858,-0.0364 z"
       id="path1171" />
    <path
       inkscape:connector-curvature="0"
       style="fill:#ff8100;fill-opacity:1;stroke:#ff8100;stroke-width:0.06740376;stroke-opacity:1"
       d="m 98.254798,156.21944 c 0.0157,-0.0865 0.029,-0.0321 0.0298,0.12063 7.3e-4,0.15274 -0.0121,0.22341 -0.0285,0.15706 -0.0164,-0.0665 -0.017,-0.19136 -9.2e-4,-0.27772 z"
       id="path1169" />
    <path
       inkscape:connector-curvature="0"
       style="fill:#ff8100;fill-opacity:1;stroke:#ff8100;stroke-width:0.06740376;stroke-opacity:1"
       d="m 99.642521,155.52195 c -0.126811,-0.0325 -0.126661,-0.0338 0.005,-0.0417 0.0747,-0.005 0.207219,0.0778 0.294479,0.18289 l 0.15863,0.19092 -0.16359,-0.14923 c -0.09,-0.0822 -0.222488,-0.1644 -0.294469,-0.18289 z"
       id="path1167" />
    <path
       inkscape:connector-curvature="0"
       style="fill:#ff8100;fill-opacity:1;stroke:#ff8100;stroke-width:0.06740376;stroke-opacity:1"
       d="m 99.20808,155.6782 c 0.085,-0.0751 0.18802,-0.13644 0.22902,-0.13611 0.041,2.1e-4 -0.0137,0.0605 -0.12175,0.13373 -0.25502,0.17331 -0.30181,0.17436 -0.10725,9.2e-4 z"
       id="path1165" />
    <path
       inkscape:connector-curvature="0"
       style="fill:#ff8100;fill-opacity:1;stroke:#ff8100;stroke-width:0.06740376;stroke-opacity:1"
       d="m 98.427145,155.6207 c 0.0616,-0.12206 0.500965,-0.56497 0.560495,-0.56497 0.0262,0 -0.567595,0.6721 -0.607065,0.68718 -0.0103,0.004 0.0106,-0.0511 0.0466,-0.12224 z"
       id="path1163" />
    <path
       inkscape:connector-curvature="0"
       style="fill:#ff8100;fill-opacity:1;stroke:#ff8100;stroke-width:0.06740376;stroke-opacity:1"
       d="m 100.78769,155.12515 c -0.0769,-0.11451 -0.12507,-0.20828 -0.10707,-0.20828 0.018,0 0.0956,0.0938 0.17251,0.20828 0.0769,0.11453 0.12505,0.2083 0.10706,0.2083 -0.018,0 -0.0956,-0.0938 -0.1725,-0.2083 z"
       id="path1161" />
    <path
       inkscape:connector-curvature="0"
       style="fill:#ff8100;fill-opacity:1;stroke:#ff8100;stroke-width:0.06740376;stroke-opacity:1"
       d="m 99.95472,154.66664 c 0.0218,-0.0231 0.0782,-0.0255 0.12543,-0.005 0.0522,0.0222 0.0367,0.0387 -0.0396,0.042 -0.069,0.004 -0.10764,-0.0128 -0.0859,-0.0364 z"
       id="path1159" />
    <path
       id="path1097"
       style="fill:#ff8100;fill-opacity:1;stroke:#ff8100;stroke-width:0.04214108;stroke-opacity:1"
       d="m 99.39095,141.72338 c -0.656155,-0.005 -0.781945,0.0113 -1.153452,0.0711 -0.2806,0.0452 -0.555917,0.0837 -0.612007,0.0861 -0.17917,0.0339 -0.27603,0.0156 -0.48187,0.0953 -6.26e-4,0.015 -0.248425,0.11192 -0.550513,0.21516 -0.637221,0.21778 -1.070528,0.48225 -1.488062,0.90819 -0.375351,0.38287 -0.415822,0.51517 -0.285514,0.93486 0.176557,0.56863 0.626095,0.97133 1.276924,1.14391 v -3.1e-4 c 0.197119,0.0523 0.369468,0.095 0.383205,0.095 0.01374,0 0.04757,-0.035 0.07523,-0.0782 0.121551,-0.18902 1.424837,-0.50114 2.244014,-0.53733 0.224475,-0.01 0.805346,0.007 1.290735,0.0377 0.48537,0.0307 1.16824,0.0558 1.51764,0.0558 0.17687,0 0.39809,-0.0549 0.49676,-0.0512 0.11903,-0.0134 0.16288,-0.004 0.34739,-0.0197 0.0257,-9.2e-4 0.15263,-0.0146 0.17845,-0.013 0.0441,0.006 0.11648,-0.002 0.1612,-0.003 0.0207,0.003 0.0956,-0.0183 0.11211,-0.0144 0.0296,0.007 -0.13037,-0.12451 -0.1016,-0.11584 -0.002,-0.002 -0.007,-0.006 -0.005,-0.005 0.0677,0.0305 0.0867,0.0585 0.0799,0.11148 0.002,0.004 0.003,0.007 0.005,0.0113 0.003,9.2e-4 0.007,0.004 0.0114,0.004 0.003,2e-5 -0.0704,-0.0522 -0.0723,-0.054 -0.003,-0.003 0.0764,0.0485 0.0825,0.0476 0.0328,-9.3e-4 0.0293,0.007 0.0621,0.006 0.0341,-0.002 0.0652,0.002 0.0954,-0.004 0.35102,-0.0575 0.65368,-0.15215 0.9969,-0.32941 0.39195,-0.20242 0.69616,-0.42665 0.84031,-0.61945 0.0965,-0.12901 0.10786,-0.18671 0.0833,-0.41226 -0.0157,-0.14432 -0.0648,-0.33285 -0.10916,-0.419 -0.15792,-0.30671 -0.52025,-0.55885 -1.18111,-0.82176 -0.20637,-0.0675 -0.37437,-0.12615 -0.66249,-0.14616 -0.6257,-0.11394 -1.1495,-0.14601 -2.77651,-0.16949 -0.36533,-0.006 -0.643039,-0.009 -0.86178,-0.0104 z"
       inkscape:connector-curvature="0"
       sodipodi:nodetypes="ccccsccccscccsccccccccccscccccccccccc" />
    <path
       id="path1095"
       style="fill:#ff8100;fill-opacity:1;stroke:#ff8100;stroke-width:0.04214108;stroke-opacity:1"
       d="m 100.23747,141.76415 c -0.25255,-0.004 -0.505598,-0.003 -0.75977,0.003 -0.987135,0.0202 -1.168452,0.0454 -2.107209,0.29241 -0.912247,0.23994 -1.135233,0.32727 -1.509506,0.59187 -0.697729,0.49327 -0.979554,0.81323 -0.975672,1.10805 0.0053,0.40163 0.299774,0.91639 0.638688,1.116 0.21892,0.12893 0.745837,0.32936 0.862733,0.32797 0.03589,-4.7e-4 0.171662,-0.067 0.301704,-0.14805 0.283055,-0.1762 0.760793,-0.31044 1.39891,-0.39294 0.377577,-0.0488 0.606247,-0.0545 1.323602,-0.0331 1.02405,0.0915 2.11648,0.1578 2.98884,-0.12317 0.0257,-9.2e-4 0.0519,-9.2e-4 0.0776,6e-4 0.0442,0.006 0.0892,0.002 0.13393,9.2e-4 0.0206,0.003 0.0874,-0.004 0.10391,3.1e-4 0.0296,0.007 0.0575,0.0173 0.0863,0.026 -0.002,-0.002 -0.007,-0.006 -0.005,-0.005 0.60098,0.0332 1.62307,-0.3457 1.97417,-0.83255 0.31791,-0.46586 0.0222,-1.07608 -0.67968,-1.40383 -0.41956,-0.19588 -0.76413,-0.27768 -1.58626,-0.37607 -0.7581,-0.0907 -1.51025,-0.14126 -2.26792,-0.15203 z"
       inkscape:connector-curvature="0"
       sodipodi:nodetypes="ccccccccccccccccccccc" />
    <path
       id="path1093"
       style="fill:#ffa400;fill-opacity:1;stroke:#ff8100;stroke-width:0.04214108;stroke-opacity:1"
       d="m 99.721742,141.83127 c -1.042827,-0.003 -1.600404,0.0938 -2.810707,0.43799 -0.537291,0.15281 -0.580422,0.17319 -1.020022,0.47971 -0.478076,0.33334 -0.816922,0.67671 -0.875583,0.88704 -0.04372,0.1569 0.08929,0.60484 0.251193,0.84505 0.150803,0.22373 0.420201,0.40652 0.805995,0.54683 0.160464,0.0584 0.303039,0.10605 0.316961,0.10605 0.01385,0 0.06217,-0.0386 0.107249,-0.0855 0.159424,-0.16602 0.769883,-0.35502 1.4604,-0.4521 0.619917,-0.0871 1.045242,-0.0942 2.051462,-0.0349 0.83991,0.0495 1.51501,0.0544 2.09898,0.0242 0.0964,-0.008 0.24246,-0.0196 0.30481,-0.0187 0.0257,-9.2e-4 0.11054,-0.009 0.13617,-0.007 0.0442,0.006 0.062,-0.002 0.10672,-0.003 0.0647,-7.4e-4 0.12993,-0.0201 0.14665,-0.0227 0.0141,-0.003 0.11846,-0.0183 0.1543,-0.0239 0.8635,-0.17193 1.52367,-0.51256 1.73546,-0.8953 0.28821,-0.52095 -0.15856,-1.12561 -1.03955,-1.4069 -0.56753,-0.18121 -2.01438,-0.33582 -3.44999,-0.36873 -0.17212,-0.004 -0.33101,-0.006 -0.479988,-0.006 z m 2.505758,2.7488 c 0.005,-0.004 -0.0131,0.004 -0.02,0.007 0.002,-1e-4 0.003,-2e-4 0.005,-3.1e-4 0.008,-0.004 0.007,-0.004 0.0145,-0.007 z"
       inkscape:connector-curvature="0"
       sodipodi:nodetypes="ccccccscccccccccccccccccc" />
    <g
       id="g1896"
       transform="matrix(0.97766789,0,0,0.92195313,-1.8408318,10.000489)">
      <path
         inkscape:connector-curvature="0"
         id="path1870"
         d="m 107.18821,151.62234 c 0.001,-0.002 -0.003,0.002 -0.005,0.003 -7.4e-4,8.1e-4 -0.001,0.003 -0.002,0.005 0.004,-0.002 0.005,-0.005 0.007,-0.008 z"
         style="fill:#ff8100;fill-opacity:1;stroke:#ff8100;stroke-width:0.05123868;stroke-opacity:1" />
      <path
         inkscape:connector-curvature="0"
         id="path1868"
         d="m 107.09497,151.60181 c -0.006,0.002 -0.0128,0.005 -0.0176,0.004 -0.003,0.008 -0.006,0.0154 -0.0103,0.0108 -0.002,-0.002 0.001,-0.009 0.003,-0.0142 -0.0106,0.0252 -0.0251,0.0632 -0.0584,0.076 -0.0175,0.0507 -0.0368,0.10307 -0.14056,0.13458 -0.006,8.1e-4 -0.0145,0.005 -0.0207,0.005 -2.9e-4,0.004 -3.2e-4,0.008 -10e-4,0.0108 -0.001,0.005 -0.004,0.009 -0.005,0.0142 -0.0574,0.0312 -0.11863,0.0582 -0.17209,0.0936 -0.007,0.005 0.0123,0.002 0.0258,0.002 0.006,-0.002 0.01,-0.007 0.0165,-0.009 0.004,-8.1e-4 -0.002,0.006 -0.005,0.009 -0.003,0.002 -0.005,-8.1e-4 -0.0114,-4.3e-4 -0.0392,0.0165 -0.0679,0.0436 -0.0992,0.069 -0.0328,0.0265 -0.0648,0.0397 -0.0951,0.0472 -0.0974,0.0656 -0.21709,0.13646 -0.33021,0.18557 -0.27828,0.12061 -0.3211,0.12546 -1.28261,0.12789 -0.54715,8.1e-4 -1.56735,0.0201 -2.26705,0.0414 -1.14963,0.0349 -1.31548,0.0505 -1.71927,0.16258 -1.07137,0.29747 -1.871395,1.03239 -2.345595,2.15455 -0.20064,0.47473 -0.252528,1.04334 -0.115238,1.26347 0.145099,0.23266 0.900225,0.41038 1.739943,0.40877 0.45907,-6.4e-4 0.52897,-0.0134 0.78083,-0.14169 0.7341,-0.37405 1.4219,-0.51372 2.79311,-0.56758 0.71784,-0.0282 1.27282,-0.0768 1.65934,-0.14545 0.46396,-0.0824 0.74895,-0.10179 1.41696,-0.0961 0.91967,0.007 1.38104,-0.0558 1.83297,-0.2537 0.51965,-0.22753 0.73322,-0.53712 0.73122,-1.0595 -0.004,-0.80076 -0.65287,-1.69823 -1.56942,-2.16918 -0.14278,-0.0734 -0.23562,-0.13518 -0.25528,-0.16719 -0.027,-0.002 -0.0534,-0.006 -0.0786,-0.0175 0.0133,0.002 0.0527,0.008 0.0398,0.005 -0.0281,-0.006 -0.0602,-0.004 -0.0858,-0.0154 -0.0259,-0.0117 -0.0668,-0.0544 -0.0765,-0.076 -0.01,-0.0222 -0.0127,-0.046 -0.0191,-0.069 0.001,-0.006 0.002,-0.0125 0.003,-0.0188 -0.0139,-1.2e-4 -0.0279,-8e-5 -0.0419,0 -0.0603,7.6e-4 -0.12177,0.006 -0.18138,-0.004 -0.013,-0.004 -0.0241,-0.003 -0.0382,-4.3e-4 z"
         style="fill:#ff8100;fill-opacity:1;stroke:#ff8100;stroke-width:0.05123868;stroke-opacity:1" />
      <path
         inkscape:connector-curvature="0"
         id="path1157"
         d="m 107.12362,151.68503 c -0.001,0.004 -0.004,0.008 -0.005,0.0121 5.3e-4,-3.4e-4 10e-4,-5.2e-4 0.002,-8.1e-4 0.002,-0.006 0.005,-0.015 0.004,-0.0112 z"
         style="fill:#ff8100;fill-opacity:1;stroke:#ff8100;stroke-width:0.05123868;stroke-opacity:1" />
      <path
         id="path1155"
         d="m 100.29039,156.29244 c 0.27379,-0.015 0.53514,-0.0449 0.58078,-0.0664 0.0456,-0.0215 0.0347,-0.006 -0.0244,0.0356 -0.0815,0.0567 -0.22142,0.0727 -0.58078,0.0664 l -0.473409,-0.009 z"
         style="fill:#ff8100;fill-opacity:1;stroke:#ff8100;stroke-width:0.05123868;stroke-opacity:1"
         inkscape:connector-curvature="0" />
      <path
         id="path1153"
         d="m 99.448031,156.26022 c 0.0184,-0.0158 0.0661,-0.0175 0.10602,-0.003 0.0441,0.0152 0.031,0.0264 -0.0334,0.0287 -0.0583,0.002 -0.091,-0.009 -0.0726,-0.0249 z"
         style="fill:#ff8100;fill-opacity:1;stroke:#ff8100;stroke-width:0.05123868;stroke-opacity:1"
         inkscape:connector-curvature="0" />
      <path
         inkscape:connector-curvature="0"
         d="m 107.10427,151.95547 c -0.0709,0.006 -0.13339,0.057 -0.28577,0.18599 -0.13844,0.11711 -0.37992,0.26652 -0.5364,0.33227 l -0.28422,0.11953 -2.12959,0.0309 c -1.49732,0.0216 -2.24289,0.0508 -2.51147,0.0982 -0.46904,0.0828 -1.0242,0.30071 -1.35082,0.53039 -0.460466,0.32377 -0.967844,1.01651 -1.225254,1.67222 -0.1389,0.35399 -0.165986,0.87861 -0.05013,0.97802 0.04306,0.037 0.274587,0.11035 0.514697,0.163 0.26972,0.0592 0.607737,0.0944 0.884187,0.0936 0.41197,-0.002 0.48248,-0.0178 0.88987,-0.19644 0.24337,-0.10675 0.57941,-0.23522 0.74672,-0.28504 0.45122,-0.13436 1.27125,-0.22745 2.00143,-0.22779 0.46013,-2e-4 0.86663,-0.0359 1.41077,-0.12329 0.61431,-0.0987 0.95928,-0.12418 1.75958,-0.13291 0.81498,-0.008 1.0459,-0.0263 1.27228,-0.0986 0.65192,-0.2086 0.91357,-0.4836 0.91157,-0.95753 -0.002,-0.4632 -0.28557,-1.03499 -0.72761,-1.46702 -0.2242,-0.21911 -0.87713,-0.61614 -1.13223,-0.68837 -0.0697,-0.0197 -0.11509,-0.0312 -0.15761,-0.0272 z"
         style="fill:#ffa400;fill-opacity:1;stroke:#ff8100;stroke-width:0.05123868;stroke-opacity:1"
         id="path1151" />
      <path
         id="path1149"
         d="m 98.706941,156.016 c -0.0688,-0.0752 -0.0668,-0.077 0.0209,-0.0179 0.0532,0.0358 0.0968,0.0732 0.0968,0.0831 0,0.0391 -0.0454,0.0138 -0.11769,-0.0651 z"
         style="fill:#ff8100;fill-opacity:1;stroke:#ff8100;stroke-width:0.05123868;stroke-opacity:1"
         inkscape:connector-curvature="0" />
      <path
         id="path1129"
         d="m 98.620901,155.23563 c 0.0177,-0.0379 0.0308,-0.0266 0.0334,0.0287 0.003,0.0501 -0.0106,0.0781 -0.0291,0.0623 -0.0184,-0.0158 -0.0203,-0.0567 -0.004,-0.091 z"
         style="fill:#ff8100;fill-opacity:1;stroke:#ff8100;stroke-width:0.05123868;stroke-opacity:1"
         inkscape:connector-curvature="0" />
      <path
         id="path1121"
         d="m 98.817861,154.69048 c 0.0652,-0.0962 0.081,-0.0654 0.0276,0.054 -0.019,0.0424 -0.0461,0.0672 -0.0604,0.0549 -0.0143,-0.0122 5.1e-4,-0.0611 0.0328,-0.1088 z"
         style="fill:#ff8100;fill-opacity:1;stroke:#ff8100;stroke-width:0.05123868;stroke-opacity:1"
         inkscape:connector-curvature="0" />
      <path
         id="path1117"
         d="m 109.35143,154.38139 c 0.0177,-0.0379 0.0308,-0.0266 0.0334,0.0287 0.002,0.0501 -0.0107,0.0781 -0.0291,0.0623 -0.0184,-0.0158 -0.0203,-0.0567 -0.004,-0.091 z"
         style="fill:#ff8100;fill-opacity:1;stroke:#ff8100;stroke-width:0.05123868;stroke-opacity:1"
         inkscape:connector-curvature="0" />
      <path
         id="path1115"
         d="m 99.043131,154.2525 c 0.15688,-0.26389 0.19764,-0.24816 0.0469,0.0181 -0.0662,0.1169 -0.12983,0.20441 -0.14142,0.19446 -0.0116,-0.01 0.0309,-0.10562 0.0945,-0.21256 z"
         style="fill:#ff8100;fill-opacity:1;stroke:#ff8100;stroke-width:0.05123868;stroke-opacity:1"
         inkscape:connector-curvature="0" />
      <path
         id="path1113"
         d="m 109.35258,153.90377 c 0.0153,-0.0327 0.0279,-0.006 0.0279,0.0593 0,0.0652 -0.0126,0.092 -0.0279,0.0593 -0.0153,-0.0327 -0.0153,-0.0861 0,-0.11867 z"
         style="fill:#ff8100;fill-opacity:1;stroke:#ff8100;stroke-width:0.05123868;stroke-opacity:1"
         inkscape:connector-curvature="0" />
      <path
         id="path1111"
         d="m 99.305471,153.86456 c 0.055,-0.0803 0.13527,-0.17111 0.17847,-0.20172 0.0432,-0.0306 0.009,0.035 -0.0765,0.14604 -0.17904,0.23297 -0.24965,0.27153 -0.10197,0.0557 z"
         style="fill:#ff8100;fill-opacity:1;stroke:#ff8100;stroke-width:0.05123868;stroke-opacity:1"
         inkscape:connector-curvature="0" />
      <path
         id="path1109"
         d="m 99.739871,153.38958 c 0.12025,-0.1066 0.293319,-0.23866 0.384579,-0.29345 0.0913,-0.0548 0.004,0.0315 -0.193589,0.19174 -0.41137,0.33337 -0.51384,0.38794 -0.19099,0.10169 z"
         style="fill:#ff8100;fill-opacity:1;stroke:#ff8100;stroke-width:0.05123868;stroke-opacity:1"
         inkscape:connector-curvature="0" />
      <path
         id="path1107"
         d="m 100.31804,152.99106 c 0,-0.0289 0.42304,-0.21528 0.48178,-0.2124 0.024,8.1e-4 -0.0683,0.0536 -0.20522,0.11651 -0.27885,0.12814 -0.27656,0.12734 -0.27656,0.0959 z"
         style="fill:#ff8100;fill-opacity:1;stroke:#ff8100;stroke-width:0.05123868;stroke-opacity:1"
         inkscape:connector-curvature="0" />
      <path
         id="path1105"
         d="m 108.50165,152.56292 c -0.25311,-0.24151 -0.26228,-0.25594 -0.0603,-0.0949 0.13096,0.10442 0.28985,0.25394 0.35307,0.33226 0.13399,0.16601 0.10731,0.14437 -0.29272,-0.23732 z"
         style="fill:#ff8100;fill-opacity:1;stroke:#ff8100;stroke-width:0.05123868;stroke-opacity:1"
         inkscape:connector-curvature="0" />
      <path
         id="path1103"
         d="m 101.49458,152.60541 c 0.0184,-0.0158 0.0661,-0.0175 0.10602,-0.003 0.0441,0.0152 0.031,0.0264 -0.0334,0.0287 -0.0583,0.002 -0.091,-0.009 -0.0726,-0.0249 z"
         style="fill:#ff8100;fill-opacity:1;stroke:#ff8100;stroke-width:0.05123868;stroke-opacity:1"
         inkscape:connector-curvature="0" />
      <path
         id="path1101"
         d="m 102.12951,152.55145 c 0.19014,-0.009 0.50127,-0.009 0.6914,0 0.19014,0.009 0.0346,0.0168 -0.3457,0.0168 -0.38027,0 -0.53583,-0.007 -0.3457,-0.0168 z"
         style="fill:#ff8100;fill-opacity:1;stroke:#ff8100;stroke-width:0.05123868;stroke-opacity:1"
         inkscape:connector-curvature="0" />
      <path
         id="path1099"
         d="m 104.39478,152.50394 c 0.21916,-0.009 0.59252,-0.009 0.82968,-1.4e-4 0.23716,0.009 0.0578,0.0163 -0.39849,0.0164 -0.45632,4e-5 -0.65036,-0.007 -0.43119,-0.0162 z"
         style="fill:#ff8100;fill-opacity:1;stroke:#ff8100;stroke-width:0.05123868;stroke-opacity:1"
         inkscape:connector-curvature="0" />
      <path
         inkscape:connector-curvature="0"
         d="m 107.74425,152.02901 c -0.009,-0.002 -0.0145,-8.1e-4 -0.0145,0.003 0,0.0111 0.10583,0.0802 0.23513,0.15339 0.12929,0.0729 0.20571,0.10266 0.17001,0.0656 -0.0601,-0.0624 -0.3253,-0.20952 -0.39067,-0.22235 z"
         style="fill:#ff8100;fill-opacity:1;stroke:#ff8100;stroke-width:0.05123868;stroke-opacity:1"
         id="path1091" />
    </g>
    <path
       inkscape:connector-curvature="0"
       id="path1904"
       d="m 102.5043,138.53097 c -0.0689,-0.0729 -0.22312,-0.31977 -0.3422,-0.54858 -0.11909,-0.22884 -0.26075,-0.41797 -0.31477,-0.42031 -0.0539,-0.002 -0.21164,0.21243 -0.35022,0.47733 -0.52103,0.99567 -0.57516,0.81644 -0.15786,-0.5228 0.14852,-0.47662 0.28689,-1.15372 0.30753,-1.50463 0.0206,-0.35095 0.11024,-1.14221 0.19915,-1.75838 l 0.16163,-1.12035 0.32238,-0.23606 c 0.49888,-0.36512 0.56096,-0.27237 0.33835,0.50481 -0.10728,0.37529 -0.21294,0.86432 -0.23477,1.08674 -0.0218,0.2225 -0.0622,0.60796 -0.0896,0.85673 -0.0619,0.56093 0.0245,1.63223 0.20143,2.49746 0.15045,0.73575 0.14179,0.88095 -0.0411,0.68798 z"
       style="fill:#019add;fill-opacity:1;stroke-width:0.07864362" />
  </g>
</svg>
